<?xml version="1.0" encoding="utf-8"?>
<!-- Generator: Adobe Illustrator 16.0.0, SVG Export Plug-In . SVG Version: 6.00 Build 0)  -->
<!DOCTYPE svg PUBLIC "-//W3C//DTD SVG 1.1//EN" "http://www.w3.org/Graphics/SVG/1.1/DTD/svg11.dtd">
<svg version="1.1" id="Capa_1" xmlns="http://www.w3.org/2000/svg" xmlns:xlink="http://www.w3.org/1999/xlink" x="0px" y="0px"
	 width="50px" height="50px" viewBox="231 231 50 50" enable-background="new 231 231 50 50" xml:space="preserve">
<g>
	<path id="Facebook__x28_alt_x29_" fill="#A6A6A6" d="M280.916,239.39c0-4.364-3.941-8.307-8.304-8.307h-33.224
		c-4.365,0-8.305,3.942-8.305,8.307v33.221c0,4.363,3.94,8.306,8.307,8.306h16.609v-18.825h-6.09v-8.306h6.09v-3.235
		c0-5.582,4.192-10.608,9.344-10.608h6.713v8.307h-6.713c-0.734,0-1.592,0.892-1.592,2.228v3.309h8.305v8.306h-8.305v18.825h8.861
		c4.362,0,8.304-3.942,8.304-8.306V239.39z"/>
</g>
</svg>
