<?xml version="1.0" encoding="utf-8"?>
<!-- Generator: Adobe Illustrator 16.0.0, SVG Export Plug-In . SVG Version: 6.00 Build 0)  -->
<!DOCTYPE svg PUBLIC "-//W3C//DTD SVG 1.1//EN" "http://www.w3.org/Graphics/SVG/1.1/DTD/svg11.dtd">
<svg version="1.1" id="Capa_1" xmlns="http://www.w3.org/2000/svg" xmlns:xlink="http://www.w3.org/1999/xlink" x="0px" y="0px"
	 width="50px" height="50px" viewBox="231 231 50 50" enable-background="new 231 231 50 50" xml:space="preserve">
<g>
	<path fill="#A6A6A6" d="M277.621,244.078c-2.233-3.827-5.26-6.855-9.087-9.088c-3.827-2.233-8.004-3.349-12.533-3.349
		c-4.531,0-8.709,1.115-12.535,3.349c-3.826,2.232-6.855,5.261-9.087,9.088c-2.232,3.826-3.349,8.002-3.349,12.533
		c0,5.439,1.588,10.334,4.763,14.68c3.176,4.348,7.278,7.355,12.307,9.023c0.585,0.105,1.018,0.031,1.3-0.229
		c0.282-0.26,0.422-0.586,0.422-0.975c0-0.064-0.004-0.648-0.016-1.756c-0.011-1.105-0.016-2.072-0.016-2.893l-0.748,0.127
		c-0.477,0.09-1.079,0.125-1.805,0.117c-0.727-0.01-1.479-0.088-2.26-0.23c-0.78-0.141-1.506-0.465-2.178-0.975
		c-0.671-0.508-1.149-1.174-1.431-1.996l-0.325-0.75c-0.217-0.498-0.558-1.051-1.024-1.658c-0.466-0.607-0.938-1.018-1.414-1.236
		l-0.228-0.162c-0.152-0.109-0.292-0.238-0.423-0.391c-0.129-0.152-0.227-0.303-0.292-0.455c-0.064-0.152-0.01-0.277,0.163-0.375
		s0.487-0.145,0.943-0.145l0.649,0.098c0.434,0.086,0.97,0.348,1.609,0.779c0.64,0.434,1.165,0.998,1.577,1.691
		c0.499,0.887,1.1,1.564,1.805,2.031c0.704,0.465,1.414,0.699,2.129,0.699s1.333-0.055,1.854-0.162
		c0.52-0.109,1.007-0.271,1.462-0.486c0.195-1.453,0.727-2.57,1.593-3.352c-1.234-0.129-2.346-0.324-3.332-0.584
		c-0.986-0.262-2.005-0.684-3.056-1.27c-1.052-0.586-1.924-1.311-2.617-2.18c-0.694-0.865-1.263-2.004-1.708-3.412
		c-0.444-1.41-0.666-3.035-0.666-4.877c0-2.623,0.856-4.855,2.569-6.699c-0.802-1.971-0.727-4.182,0.228-6.632
		c0.628-0.195,1.561-0.048,2.796,0.439c1.236,0.488,2.141,0.905,2.714,1.252c0.575,0.347,1.036,0.64,1.383,0.878
		c2.016-0.564,4.097-0.845,6.242-0.845c2.146,0,4.227,0.281,6.243,0.845l1.236-0.78c0.844-0.521,1.842-0.998,2.991-1.431
		c1.147-0.434,2.026-0.553,2.634-0.358c0.975,2.45,1.062,4.661,0.258,6.633c1.713,1.843,2.569,4.075,2.569,6.698
		c0,1.842-0.222,3.473-0.666,4.893s-1.018,2.559-1.723,3.412c-0.704,0.861-1.582,1.578-2.633,2.164
		c-1.052,0.586-2.072,1.008-3.057,1.27c-0.987,0.26-2.098,0.455-3.333,0.584c1.126,0.975,1.689,2.516,1.689,4.617v6.861
		c0,0.389,0.137,0.713,0.407,0.975c0.271,0.258,0.699,0.334,1.284,0.227c5.03-1.668,9.132-4.678,12.307-9.023
		c3.176-4.346,4.763-9.238,4.763-14.678C280.97,252.08,279.854,247.903,277.621,244.078z"/>
</g>
</svg>
