<?xml version="1.0" encoding="utf-8"?>
<!-- Generator: Adobe Illustrator 16.0.0, SVG Export Plug-In . SVG Version: 6.00 Build 0)  -->
<!DOCTYPE svg PUBLIC "-//W3C//DTD SVG 1.1//EN" "http://www.w3.org/Graphics/SVG/1.1/DTD/svg11.dtd">
<svg version="1.1" id="Capa_1" xmlns="http://www.w3.org/2000/svg" xmlns:xlink="http://www.w3.org/1999/xlink" x="0px" y="0px"
	 width="50px" height="50px" viewBox="231 231 50 50" enable-background="new 231 231 50 50" xml:space="preserve">
<g>
	<g>
		<path fill="#A6A6A6" d="M280.885,240.57c-1.834,0.812-3.799,1.363-5.865,1.609c2.109-1.263,3.724-3.267,4.489-5.646
			c-1.979,1.169-4.163,2.018-6.489,2.479c-1.863-1.989-4.513-3.227-7.453-3.227c-5.641,0-10.213,4.573-10.213,10.21
			c0,0.799,0.089,1.58,0.265,2.327c-8.487-0.426-16.012-4.492-21.048-10.67c-0.881,1.505-1.382,3.26-1.382,5.133
			c0,3.543,1.805,6.669,4.542,8.499c-1.673-0.057-3.248-0.517-4.625-1.282v0.127c0,4.947,3.521,9.075,8.19,10.013
			c-0.855,0.231-1.757,0.359-2.691,0.359c-0.66,0-1.297-0.065-1.922-0.189c1.3,4.059,5.071,7.011,9.538,7.092
			c-3.493,2.738-7.898,4.366-12.682,4.366c-0.824,0-1.637-0.052-2.436-0.142c4.52,2.903,9.886,4.595,15.653,4.595
			c18.787,0,29.055-15.561,29.055-29.055l-0.033-1.323C277.783,244.416,279.518,242.618,280.885,240.57z"/>
	</g>
</g>
</svg>
